<mxfile host="app.diagrams.net" agent="Mozilla/5.0 (Windows NT 10.0; Win64; x64; rv:136.0) Gecko/20100101 Firefox/136.0" version="26.1.1">
  <diagram name="Page-1" id="nj9fEkYFzmO_f7lPYOMM">
    <mxGraphModel dx="1432" dy="746" grid="1" gridSize="10" guides="1" tooltips="1" connect="1" arrows="1" fold="1" page="1" pageScale="1" pageWidth="1169" pageHeight="827" math="0" shadow="0">
      <root>
        <mxCell id="0" />
        <mxCell id="1" parent="0" />
        <mxCell id="IcHHnif0nmUrZjCi6gja-13" value="" style="rounded=0;whiteSpace=wrap;html=1;dashed=1;dashPattern=1 1;strokeWidth=4;strokeColor=light-dark(#c0c0c0, #ededed);fillColor=none;" vertex="1" parent="1">
          <mxGeometry x="490" y="90" width="470" height="410" as="geometry" />
        </mxCell>
        <mxCell id="IcHHnif0nmUrZjCi6gja-11" value="" style="rounded=0;whiteSpace=wrap;html=1;dashed=1;dashPattern=1 1;strokeWidth=4;strokeColor=light-dark(#0000ff, #ededed);fillColor=none;" vertex="1" parent="1">
          <mxGeometry x="300" y="50" width="870" height="520" as="geometry" />
        </mxCell>
        <mxCell id="IcHHnif0nmUrZjCi6gja-14" value="" style="rounded=0;whiteSpace=wrap;html=1;strokeWidth=2;strokeColor=light-dark(#000000, #ededed);fillColor=none;" vertex="1" parent="1">
          <mxGeometry x="530" y="164.2" width="390" height="310" as="geometry" />
        </mxCell>
        <mxCell id="IcHHnif0nmUrZjCi6gja-15" style="edgeStyle=orthogonalEdgeStyle;rounded=0;orthogonalLoop=1;jettySize=auto;html=1;" edge="1" parent="1" source="IcHHnif0nmUrZjCi6gja-1" target="IcHHnif0nmUrZjCi6gja-3">
          <mxGeometry relative="1" as="geometry">
            <Array as="points">
              <mxPoint x="1074" y="290" />
            </Array>
          </mxGeometry>
        </mxCell>
        <mxCell id="IcHHnif0nmUrZjCi6gja-1" value="Azure Container Registry" style="image;aspect=fixed;html=1;points=[];align=center;fontSize=12;image=img/lib/azure2/containers/Container_Registries.svg;" vertex="1" parent="1">
          <mxGeometry x="1040" y="120" width="68" height="61" as="geometry" />
        </mxCell>
        <mxCell id="IcHHnif0nmUrZjCi6gja-2" value="Virtual Network" style="image;aspect=fixed;html=1;points=[];align=center;fontSize=12;image=img/lib/azure2/networking/Virtual_Networks_Classic.svg;" vertex="1" parent="1">
          <mxGeometry x="510" y="100" width="50.25" height="30" as="geometry" />
        </mxCell>
        <mxCell id="IcHHnif0nmUrZjCi6gja-16" style="edgeStyle=orthogonalEdgeStyle;rounded=0;orthogonalLoop=1;jettySize=auto;html=1;" edge="1" parent="1" source="IcHHnif0nmUrZjCi6gja-3" target="IcHHnif0nmUrZjCi6gja-6">
          <mxGeometry relative="1" as="geometry" />
        </mxCell>
        <mxCell id="IcHHnif0nmUrZjCi6gja-3" value="Azure Container Instance" style="image;aspect=fixed;html=1;points=[];align=center;fontSize=12;image=img/lib/azure2/compute/Container_Instances.svg;" vertex="1" parent="1">
          <mxGeometry x="680" y="270" width="64" height="68" as="geometry" />
        </mxCell>
        <mxCell id="IcHHnif0nmUrZjCi6gja-17" style="edgeStyle=orthogonalEdgeStyle;rounded=0;orthogonalLoop=1;jettySize=auto;html=1;" edge="1" parent="1" source="IcHHnif0nmUrZjCi6gja-4" target="IcHHnif0nmUrZjCi6gja-3">
          <mxGeometry relative="1" as="geometry" />
        </mxCell>
        <mxCell id="IcHHnif0nmUrZjCi6gja-4" value="&lt;div&gt;Public IP&lt;/div&gt;" style="image;aspect=fixed;html=1;points=[];align=center;fontSize=12;image=img/lib/azure2/networking/Public_IP_Addresses.svg;" vertex="1" parent="1">
          <mxGeometry x="370" y="258.3" width="65" height="52" as="geometry" />
        </mxCell>
        <mxCell id="IcHHnif0nmUrZjCi6gja-5" value="&lt;div&gt;Network&lt;/div&gt;&lt;div&gt;Security Group&lt;/div&gt;" style="image;aspect=fixed;html=1;points=[];align=center;fontSize=12;image=img/lib/azure2/networking/Network_Security_Groups.svg;" vertex="1" parent="1">
          <mxGeometry x="518.6500000000001" y="360" width="32.94" height="40" as="geometry" />
        </mxCell>
        <mxCell id="IcHHnif0nmUrZjCi6gja-6" value="Azure Monitor" style="image;aspect=fixed;html=1;points=[];align=center;fontSize=12;image=img/lib/azure2/management_governance/Monitor.svg;" vertex="1" parent="1">
          <mxGeometry x="1042" y="390" width="64" height="64" as="geometry" />
        </mxCell>
        <mxCell id="IcHHnif0nmUrZjCi6gja-7" value="Internet" style="sketch=0;aspect=fixed;pointerEvents=1;shadow=0;dashed=0;html=1;strokeColor=none;labelPosition=center;verticalLabelPosition=bottom;verticalAlign=top;align=center;fillColor=#00188D;shape=mxgraph.mscae.enterprise.internet" vertex="1" parent="1">
          <mxGeometry x="60" y="240" width="130" height="80.6" as="geometry" />
        </mxCell>
        <mxCell id="IcHHnif0nmUrZjCi6gja-8" style="edgeStyle=orthogonalEdgeStyle;rounded=0;orthogonalLoop=1;jettySize=auto;html=1;entryX=0.969;entryY=0.556;entryDx=0;entryDy=0;entryPerimeter=0;" edge="1" parent="1" source="IcHHnif0nmUrZjCi6gja-4" target="IcHHnif0nmUrZjCi6gja-7">
          <mxGeometry relative="1" as="geometry" />
        </mxCell>
        <mxCell id="IcHHnif0nmUrZjCi6gja-9" value="&lt;div&gt;Subnet&lt;/div&gt;" style="image;aspect=fixed;html=1;points=[];align=center;fontSize=12;image=img/lib/azure2/networking/Subnet.svg;" vertex="1" parent="1">
          <mxGeometry x="534" y="170" width="50.1" height="30" as="geometry" />
        </mxCell>
        <mxCell id="IcHHnif0nmUrZjCi6gja-12" value="Recource Group" style="text;html=1;align=center;verticalAlign=middle;whiteSpace=wrap;rounded=0;" vertex="1" parent="1">
          <mxGeometry x="320" y="60" width="60" height="30" as="geometry" />
        </mxCell>
      </root>
    </mxGraphModel>
  </diagram>
</mxfile>
